<?xml version="1.0" standalone="no"?><!DOCTYPE svg PUBLIC "-//W3C//DTD SVG 1.1//EN" "http://www.w3.org/Graphics/SVG/1.1/DTD/svg11.dtd"><svg t="1698737539170" class="icon" viewBox="0 0 1024 1024" version="1.1" xmlns="http://www.w3.org/2000/svg" p-id="2787" xmlns:xlink="http://www.w3.org/1999/xlink" width="200" height="200"><path d="M829.69159 986.537463l-18.975259-340.662692a58.8737 58.8737 0 0 0-44.414265-53.817898l-18.639272-4.691817-3.043881 10.859576a16.323362 16.323362 0 0 1-20.059216 11.275559l-97.512191-27.338932a16.323362 16.323362 0 0 1-11.27556-20.059216l4.015844-14.323441-13.007492-6.411749-7.251717-3.57586a33.698684 33.698684 0 0 1-18.795266-30.22282v-19.779227l-2.403906 2.339908a88.024562 88.024562 0 0 1-61.409601 24.963025h-8.887653a88.016562 88.016562 0 0 1-61.409601-24.963025l-3.355869-3.267872v20.707191a33.698684 33.698684 0 0 1-18.795266 30.22282l-5.343791 2.635897-19.239249 9.483629 3.415867 12.191524a16.319363 16.319363 0 0 1-11.27556 20.059216l-97.512191 27.338932a16.319363 16.319363 0 0 1-20.059216-11.275559l-2.719894-9.703621-14.047451 3.535862a58.8777 58.8777 0 0 0-44.414265 53.817898l-18.975259 340.666692a25.974985 25.974985 0 0 0 25.934987 27.418929h583.509207a25.982985 25.982985 0 0 0 25.946986-27.422929z" fill="#1B87C9" p-id="2788"></path><path d="M664.84203 742.399h-68.453326a11.063568 11.063568 0 0 0-11.03157 11.031569v115.683481a11.063568 11.063568 0 0 0 11.03157 11.031569h68.453326a11.063568 11.063568 0 0 0 11.031569-11.031569v-115.683481a11.063568 11.063568 0 0 0-11.031569-11.031569zM424.767408 742.399H356.314081a11.063568 11.063568 0 0 0-11.031569 11.031569v115.683481a11.063568 11.063568 0 0 0 11.031569 11.031569h68.453327a11.063568 11.063568 0 0 0 11.031569-11.031569v-115.683481a11.063568 11.063568 0 0 0-11.031569-11.031569z" fill="#30A9E5" p-id="2789"></path><path d="M403.308246 562.102043l-5.027804-17.9313a16.319363 16.319363 0 0 0-20.059216-11.275559l-97.512191 27.334932a16.319363 16.319363 0 0 0-11.27556 20.059216l5.027804 17.9313a16.319363 16.319363 0 0 0 20.059216 11.27556l97.512191-27.334933a16.319363 16.319363 0 0 0 11.27556-20.059216zM615.771946 562.102043l5.027804-17.9313a16.319363 16.319363 0 0 1 20.059216-11.275559l97.512191 27.334932a16.319363 16.319363 0 0 1 11.27556 20.059216l-5.027804 17.9313a16.319363 16.319363 0 0 1-20.059216 11.27556l-97.512191-27.334933a16.319363 16.319363 0 0 1-11.27556-20.059216z" fill="#FCBD4C" p-id="2790"></path><path d="M582.261255 649.258638l44.742253-67.113378a16.311363 16.311363 0 0 1-11.231562-20.043217l4.015844-14.323441-13.007492-6.411749-7.251717-3.57586a33.730682 33.730682 0 0 1-8.011687-5.539784l-66.997383 79.976876 57.741744 37.030553zM396.052529 580.333331l45.950205 68.925307 57.745745-37.030553-67.125378-80.12487a33.578688 33.578688 0 0 1-8.151682 5.687778l-5.343791 2.635897-19.239249 9.483629 3.415867 12.191524c2.007922 7.151721-1.191953 14.531432-7.251717 18.231288z" fill="#30A9E5" p-id="2791"></path><path d="M524.519511 612.224085h-24.771032l-29.102864 18.663271c2.583899 20.251209 19.96322 36.050592 40.890403 36.050592 21.167173 0 38.730487-16.159369 40.998399-36.750565l-28.014906-17.963298z" fill="#3F3F3F" p-id="2792"></path><path d="M533.77115 660.354205a40.814406 40.814406 0 0 1-44.470263-0.015999l-25.87099 275.825225a11.599547 11.599547 0 0 0 3.33187 9.423632l36.574571 36.574571a11.599547 11.599547 0 0 0 16.40336 0l36.570571-36.574571a11.591547 11.591547 0 0 0 3.33187-9.423632l-25.870989-275.809226z" fill="#3F3F3F" p-id="2793"></path><path d="M811.5203 660.334206c-29.898832 3.927847-52.99793 29.44685-52.99793 60.41764 0 33.2707 26.646959 60.269646 59.757666 60.941619l-6.759736-121.359259zM212.4877 660.170212l-6.771736 121.579251c33.618687-0.083997 60.849623-27.354931 60.849623-60.993618 0-31.350775-23.651076-57.145768-54.077887-60.585633z" fill="#FCBD4C" p-id="2794"></path><path d="M668.525886 675.493614h-75.825038a7.347713 7.347713 0 0 0-7.347713 7.347713v20.72719c0 4.055842 3.287872 7.347713 7.347713 7.347713h75.825038a7.347713 7.347713 0 0 0 7.347713-7.347713v-20.72719a7.343713 7.343713 0 0 0-7.347713-7.347713z" fill="#E04E36" p-id="2795"></path><path d="M653.618468 252.302144l-0.131995 0.004 8.067685 92.860373c22.055138-3.775853 38.862482-22.935104 38.862482-46.066201 0-25.84699-20.951182-46.798172-46.798172-46.798172zM368.341612 252.330143c-25.571001 0.319988-46.206195 21.123175-46.206195 46.770173 0 22.647115 16.11937 41.446381 37.490535 45.774212l8.71566-92.544385z" fill="#F9D8B7" p-id="2796"></path><path d="M667.817913 226.82714H350.082325c-14.359439 0-26.10698-11.747541-26.10698-26.106981v-6.823733c0-14.359439 11.747541-26.10698 26.10698-26.10698h317.739588c14.359439 0 26.10698 11.747541 26.10698 26.10698v6.823733c-0.004 14.359439-11.751541 26.10698-26.11098 26.106981z" fill="#E8E6E6" p-id="2797"></path><path d="M368.245615 226.82714c28.92287 23.519081 82.93276 39.358463 144.830343 39.358462 61.901582 0 115.907472-15.835381 144.834342-39.358462H368.245615zM724.799688 120.103308C703.032538 77.552971 638.235069 9.999609 512 9.999609S320.963462 77.552971 299.200312 120.103308c-17.15933 33.54269 7.323714 61.813585 24.775033 76.493012v-2.695894c0-14.359439 11.747541-26.10698 26.10698-26.10698h317.739588c14.359439 0 26.10698 11.747541 26.10698 26.10698v6.823733c0 0.24799-0.031999 0.487981-0.039998 0.735971 16.775345-12.515511 50.230038-43.582298 30.910793-81.356822z" fill="#3F3F3F" p-id="2798"></path><path d="M651.678544 231.486958c-30.058826 20.923183-80.88884 34.698645-138.602586 34.698644-60.321644 0-113.079583-15.059412-142.502434-37.594531l-12.703503 134.858732c-2.383907 25.555002 10.855576 50.818015 29.242857 68.725315l59.509676 57.953736a88.032561 88.032561 0 0 0 61.409601 24.963025h8.887653a88.008562 88.008562 0 0 0 61.409601-24.963025l59.509675-57.953736a84.924683 84.924683 0 0 0 25.307012-68.725315l-11.467552-131.962845z" fill="#F9D8B7" p-id="2799"></path><path d="M685.521222 219.827413a25.982985 25.982985 0 0 1-17.703309 6.999727h-9.907613c-1.955924 1.591938-4.051842 3.139877-6.231756 4.659818l1.811929 20.819186 0.131995-0.004c19.335245 0 35.922597 11.727542 43.058318 28.454889a176.993086 176.993086 0 0 0-11.159564-60.92962zM350.082325 226.82714a25.878989 25.878989 0 0 1-13.655467-3.915847 176.961087 176.961087 0 0 0-10.063607 56.837779c7.291715-15.999375 23.29909-27.186938 41.978361-27.418929l2.235912-23.739072c-0.76797-0.587977-1.595938-1.163955-2.331909-1.763931h-18.16329zM370.577524 228.591071z" fill="#E8B16D" p-id="2800"></path><path d="M508.032155 515.091879a88.016562 88.016562 0 0 1-61.409601-24.963025l-3.355869-3.267872v20.707191a33.666685 33.666685 0 0 1-10.643584 24.531042l67.125378 80.12487h24.771032l67.001383-79.972876a33.678684 33.678684 0 0 1-10.783579-24.683036v-19.779227l-2.403906 2.339908a88.024562 88.024562 0 0 1-61.409601 24.963025h-8.891653z" fill="#F9D8B7" p-id="2801"></path><path d="M548.842561 84.876685l-5.359791-20.947182c-0.939963-3.667857-3.759853-6.171759-6.951728-6.171759h-53.981892c-3.191875 0-6.011765 2.503902-6.951728 6.171759l-5.359791 20.947182c-3.415867 13.347479 2.091918 27.64292 12.763502 33.142705l26.538963 13.675466 26.538963-13.675466c10.671583-5.499785 16.175368-19.795227 12.763502-33.142705zM531.543237 917.24417l-2.663896-10.415593c-0.467982-1.823929-1.867927-3.06788-3.455865-3.06788h-26.842952c-1.587938 0-2.987883 1.243951-3.455865 3.06788l-2.663896 10.415593c-1.699934 6.635741 1.039959 13.743463 6.347752 16.479356l13.195485 6.799735 13.195484-6.799735c5.303793-2.731893 8.039686-9.843615 6.343753-16.479356z" fill="#FCBD4C" p-id="2802"></path><path d="M803.752603 1023.960002H220.243397a36.118589 36.118589 0 0 1-26.134979-11.251561 36.134588 36.134588 0 0 1-9.783618-26.722956l18.975259-340.666693a68.565322 68.565322 0 0 1 51.95397-62.96154l14.043452-3.535862a10.011609 10.011609 0 0 1 12.071528 6.999726l2.719894 9.703621c0.915964 3.267872 4.459826 5.275794 7.735698 4.34783l97.508191-27.338932c1.595938-0.443983 2.927886-1.503941 3.755853-2.971884 0.827968-1.471943 1.03596-3.159877 0.587977-4.755814l-3.415867-12.195523a9.999609 9.999609 0 0 1 5.207797-11.667545l24.58304-12.115526a23.55108 23.55108 0 0 0 13.215484-21.25117v-20.711191a10.003609 10.003609 0 0 1 16.975336-7.16372l3.355869 3.267872a77.604969 77.604969 0 0 0 54.429874 22.127136h8.895653c20.447201 0 39.774446-7.859693 54.421874-22.127136l2.407906-2.343908a10.007609 10.007609 0 0 1 16.975337 7.16772v19.779227a23.539081 23.539081 0 0 0 13.219483 21.25117l20.259209 9.98761a9.999609 9.999609 0 0 1 5.203797 11.667544l-4.011844 14.32344c-0.447983 1.595938-0.239991 3.283872 0.587977 4.755815 0.827968 1.467943 2.159916 2.527901 3.751854 2.971884l97.512191 27.338932c1.595938 0.443983 3.283872 0.239991 4.755814-0.587977s2.527901-2.159916 2.975884-3.755854l3.043881-10.859575a10.015609 10.015609 0 0 1 12.067528-6.999727l18.643272 4.691817a68.581321 68.581321 0 0 1 51.957971 62.96154l18.975258 340.662693a36.130589 36.130589 0 0 1-9.783617 26.726956 36.110589 36.110589 0 0 1-26.13498 11.251561zM264.741659 600.592539l-4.603821 1.159955a48.654099 48.654099 0 0 0-36.870559 44.674255l-18.975259 340.666693a15.831382 15.831382 0 0 0 4.34383 11.867536 15.803383 15.803383 0 0 0 11.603547 4.999805H803.748604c4.435827 0 8.559666-1.771931 11.607546-4.999805a15.827382 15.827382 0 0 0 4.34383-11.871536l-18.975258-340.662693a48.654099 48.654099 0 0 0-36.87056-44.674255l-9.199641-2.315909-0.415983 1.483942c-1.887926 6.739737-6.303754 12.347518-12.431515 15.791383s-13.215484 4.303832-19.95122 2.415905l-97.512191-27.338932a26.078981 26.078981 0 0 1-15.791384-12.431514 26.094981 26.094981 0 0 1-2.411905-19.951221l1.77193-6.327753-12.811499-6.315753a43.418304 43.418304 0 0 1-24.351049-37.750525 97.448193 97.448193 0 0 1-53.833897 16.083371h-8.891653a97.436194 97.436194 0 0 1-54.77386-16.707347 43.414304 43.414304 0 0 1-24.363048 38.374501l-17.135331 8.44367 1.175954 4.199836a26.090981 26.090981 0 0 1-2.411906 19.951221 26.062982 26.062982 0 0 1-15.791383 12.431514l-97.508191 27.338932a26.310972 26.310972 0 0 1-32.386735-18.207288l-0.087996-0.327988z" fill="#231F20" p-id="2803"></path><path d="M664.83803 890.145229h-68.453326a21.055178 21.055178 0 0 1-21.031179-21.031179v-115.683481a21.059177 21.059177 0 0 1 21.031179-21.035178h68.453326c11.599547 0 21.035178 9.435631 21.035178 21.035178v115.683481c0 11.599547-9.435631 21.031178-21.035178 21.031179z m-68.449326-137.750619a1.059959 1.059959 0 0 0-1.03196 1.035959v115.683481c0 0.539979 0.491981 1.03196 1.03196 1.03196h68.453326a1.079958 1.079958 0 0 0 1.035959-1.03196v-115.683481a1.063958 1.063958 0 0 0-1.035959-1.035959h-68.453326zM424.763408 890.145229H356.314081a21.055178 21.055178 0 0 1-21.031178-21.031179v-115.683481a21.059177 21.059177 0 0 1 21.031178-21.035178h68.453327c11.599547 0 21.035178 9.435631 21.035178 21.035178v115.683481a21.059177 21.059177 0 0 1-21.039178 21.031179z m-68.449327-137.750619a1.059959 1.059959 0 0 0-1.031959 1.035959v115.683481c0 0.539979 0.491981 1.03196 1.031959 1.03196h68.453327a1.079958 1.079958 0 0 0 1.035959-1.03196v-115.683481a1.063958 1.063958 0 0 0-1.035959-1.035959H356.314081zM290.144666 622.103699c-12.359517 0-23.739073-8.175681-27.234936-20.643194l-5.027804-17.927299c-4.207836-15.007414 4.579821-30.642803 19.587235-34.854639l97.516191-27.334932c14.999414-4.203836 30.642803 4.579821 34.850639 19.587235l5.027803 17.931299a28.086903 28.086903 0 0 1-2.591898 21.471162 28.070903 28.070903 0 0 1-16.999336 13.379477l-97.504192 27.338932a28.294895 28.294895 0 0 1-7.623702 1.051959z m92.42839-77.804961c-0.367986 0-0.743971 0.051998-1.111957 0.151994l-97.508191 27.334933c-2.227913 0.623976-3.58386 3.039881-2.959884 5.267794l5.027803 17.9273c0.623976 2.231913 3.051881 3.57986 5.267795 2.959884l97.504191-27.338932c1.459943-0.411984 2.227913-1.443944 2.5559-2.027921s0.815968-1.775931 0.407984-3.239873l-5.027804-17.9313a4.35183 4.35183 0 0 0-4.155837-3.103879zM728.939526 622.103699c-2.519902 0-5.075802-0.339987-7.615703-1.051959l-97.51619-27.338932c-15.003414-4.203836-23.795071-19.839225-19.587235-34.850639l5.027803-17.931299a28.294895 28.294895 0 0 1 34.850639-19.587235l97.512191 27.334932c15.011414 4.211835 23.79907 19.847225 19.591235 34.854639l-5.023804 17.927299c-3.503863 12.467513-14.883419 20.643194-27.238936 20.643194z m-101.612031-56.761783c-0.623976 2.231913 0.731971 4.639819 2.955885 5.263795l97.51619 27.338932a4.331831 4.331831 0 0 0 5.263795-2.959885l5.023803-17.927299a4.331831 4.331831 0 0 0-2.963884-5.267795l-97.504191-27.334932a4.35183 4.35183 0 0 0-5.267794 2.955885l-5.023804 17.931299z" fill="#231F20" p-id="2804"></path><path d="M582.253256 659.254248c-1.847928 0-3.719855-0.51198-5.38779-1.583938l-57.745744-37.030554a9.99161 9.99161 0 0 1-2.267912-14.83942l66.997383-79.976876a10.011609 10.011609 0 0 1 14.475435-0.903965c1.707933 1.583938 3.599859 2.899887 5.62778 3.903848l20.255209 9.98361a9.999609 9.999609 0 0 1 5.207796 11.667544l-4.015843 14.323441a6.279755 6.279755 0 0 0 4.331831 7.723698 9.999609 9.999609 0 0 1 5.591782 15.167407l-44.742253 67.109379a9.97161 9.97161 0 0 1-8.327674 4.455826z m-42.774329-49.314074l39.91444 25.591001 33.582689-50.370033a26.302973 26.302973 0 0 1-6.831734-25.758994l1.771931-6.327752-12.811499-6.315754c-0.631975-0.311988-1.259951-0.639975-1.875927-0.983961l-53.7499 64.165493zM442.010734 659.254248a9.999609 9.999609 0 0 1-8.331675-4.451826l-45.950205-68.921308a9.999609 9.999609 0 0 1 3.111879-14.08345c2.411906-1.471943 3.57986-4.35183 2.835889-6.995727l-3.415867-12.195523a9.999609 9.999609 0 0 1 5.207797-11.667544l24.58304-12.115527c2.03592-1.007961 3.963845-2.359908 5.723776-4.011843a9.99161 9.99161 0 0 1 14.515433 0.867966l67.125378 80.12487a10.011609 10.011609 0 0 1-2.267911 14.83942l-57.745745 37.030554a9.99161 9.99161 0 0 1-5.391789 1.579938z m-33.038709-77.56897l35.902597 53.849896 39.914441-25.591-53.837897-64.26549a38.550494 38.550494 0 0 1-2.05192 1.083958l-17.13933 8.44767 1.175954 4.199836a26.222976 26.222976 0 0 1-3.963845 22.27513z" fill="#231F20" p-id="2805"></path><path d="M511.536018 676.937557c-25.706996 0-47.550143-19.251248-50.810015-44.782251a10.011609 10.011609 0 0 1 4.519823-9.683621l29.098864-18.663271a10.011609 10.011609 0 0 1 5.399789-1.583938h24.771032c1.915925 0 3.787852 0.551978 5.399789 1.583938l28.010906 17.963298a9.999609 9.999609 0 0 1 4.539823 9.511628 51.178001 51.178001 0 0 1-50.930011 45.654217z m-29.622843-41.394383c4.175837 12.53951 16.011375 21.399164 29.622843 21.399164a31.202781 31.202781 0 0 0 29.850834-22.01514l-19.799227-12.699504h-18.911261l-20.763189 13.31548z" fill="#231F20" p-id="2806"></path><path d="M511.536018 995.557111a21.459162 21.459162 0 0 1-15.271403-6.327753l-36.574572-36.574571a21.50316 21.50316 0 0 1-6.207757-17.547315l25.85899-275.70523a10.003609 10.003609 0 0 1 15.387399-7.467708c10.103605 6.539745 23.511082 6.527745 33.618686 0.011999a10.003609 10.003609 0 0 1 15.3794 7.471708l25.870989 275.809227a21.439163 21.439163 0 0 1-6.219757 17.423319l-36.574571 36.574571a21.411164 21.411164 0 0 1-15.267404 6.331753z m-13.57547-320.471482l-24.57504 262.013766a1.663935 1.663935 0 0 0 0.443983 1.415944l36.574571 36.574572c0.77597 0.77197 1.487942 0.77197 2.259912 0l36.574571-36.574572a1.583938 1.583938 0 0 0 0.459982-1.295949l-24.587039-262.129761c-8.799656 2.447904-18.351283 2.443905-27.15094-0.004zM818.280036 791.693074l-0.199992-0.003999c-38.354502-0.77197-69.557283-32.590727-69.557283-70.93323 0-35.474614 26.522964-65.713433 61.69759-70.333252a9.939612 9.939612 0 0 1 7.6837 2.215913c2.143916 1.775931 3.447865 4.36383 3.599859 7.143721l6.759736 121.35926a10.003609 10.003609 0 0 1-9.98361 10.551587z m-16.079372-118.859357c-19.787227 7.151721-33.678684 26.162978-33.678684 47.918129 0 23.80707 16.759345 44.118277 39.110472 49.538065l-5.431788-97.456194zM205.715964 791.745072a9.999609 9.999609 0 0 1-9.98361-10.551587l6.771736-121.579251a9.98761 9.98761 0 0 1 11.107566-9.379634c35.890598 4.059841 62.953541 34.378657 62.953541 70.521245 0 39.050475-31.770759 70.90123-70.829234 70.993227l-0.019999-0.004z m16.107371-119.335338l-5.471786 98.188165c22.951103-4.967806 40.214429-25.451006 40.214429-49.846053a50.93801 50.93801 0 0 0-34.742643-48.342112zM668.525886 720.911839h-75.829038a17.363322 17.363322 0 0 1-17.343323-17.347322v-20.72719a17.363322 17.363322 0 0 1 17.343323-17.347323h75.829038a17.363322 17.363322 0 0 1 17.347322 17.347323v20.72719a17.363322 17.363322 0 0 1-17.347322 17.347322z m-73.173142-19.999218h70.521245v-15.419398h-70.521245v15.419398z m73.173142-15.419398h0.039998-0.039998zM661.558158 355.166126a9.99161 9.99161 0 0 1-9.959611-9.135643l-8.067685-92.860372a10.011609 10.011609 0 0 1 9.963611-10.867576l0.131995-0.004c31.318777 0 56.797781 25.479005 56.797781 56.793782 0 27.726917-19.839225 51.245998-47.170157 55.921815a9.447631 9.447631 0 0 1-1.695934 0.151994z m2.979883-91.212437l5.89577 67.85335a36.638569 36.638569 0 0 0 19.98322-32.710722c0-16.487356-10.903574-30.478809-25.87899-35.142628zM359.621952 354.870138a10.119605 10.119605 0 0 1-1.983922-0.199992c-26.37097-5.335792-45.506222-28.706879-45.506223-55.573829 0-30.914792 25.159017-56.381798 56.08181-56.765783a10.187602 10.187602 0 0 1 7.479707 3.223874 9.999609 9.999609 0 0 1 2.599899 7.715699l-8.71566 92.540385a9.959611 9.959611 0 0 1-3.995844 7.087723 9.97561 9.97561 0 0 1-5.959767 1.971923z m-2.447904-90.604461c-14.523433 4.935807-25.039022 18.747268-25.039022 34.83064 0 13.475474 7.447709 25.591 18.747268 31.974751l6.291754-66.805391zM667.821913 236.826749H350.082325c-19.911222 0-36.10659-16.195367-36.10659-36.10259v-6.823733c0-19.911222 16.195367-36.10259 36.10659-36.10259h317.739588c19.907222 0 36.10259 16.195367 36.10259 36.10259v6.823733c0 19.907222-16.195367 36.10259-36.10259 36.10259zM350.082325 177.793055a16.12737 16.12737 0 0 0-16.107371 16.103371v6.823733a16.12337 16.12337 0 0 0 16.107371 16.103371h317.739588a16.12337 16.12337 0 0 0 16.103371-16.103371v-6.823733a16.11937 16.11937 0 0 0-16.103371-16.103371H350.082325z" fill="#231F20" p-id="2807"></path><path d="M513.079958 276.185212c-62.609554 0-119.111347-15.551393-151.142096-41.598376a9.999609 9.999609 0 0 1 6.311753-17.755306h289.660685a10.003609 10.003609 0 0 1 6.307754 17.755306c-32.030749 26.046983-88.532542 41.598375-151.138096 41.598376z m-107.863787-39.358463c28.970868 12.251521 67.365369 19.359244 107.863787 19.359244s78.892918-7.103723 107.863786-19.359244h-215.727573zM693.884895 211.45574a9.999609 9.999609 0 0 1-9.951611-11.043569l-0.004-6.515745a16.12337 16.12337 0 0 0-16.107371-16.103371H350.082325a16.12737 16.12737 0 0 0-16.107371 16.103371v2.695895a9.999609 9.999609 0 0 1-16.439358 7.651701c-32.738721-27.538924-42.414343-59.041694-27.238936-88.700535C300.168275 96.24824 357.242045 0 512 0c154.745955 0 211.831725 96.24824 221.70334 115.547486 16.163369 31.602766 3.83185 65.837428-33.834679 93.924332a10.023608 10.023608 0 0 1-5.983766 1.983922zM350.082325 157.793836h317.739588c15.551393 0 28.838873 9.883614 33.910676 23.699074 13.859459-14.063451 25.722995-34.242662 14.167446-56.837779C706.956385 107.179813 655.10241 19.999219 512 19.999219 368.88559 19.999219 317.039616 107.179813 308.099965 124.655131c-10.2476 20.039217-2.151916 38.262505 10.071606 52.353955a36.138588 36.138588 0 0 1 31.910754-19.21525z" fill="#231F20" p-id="2808"></path><path d="M516.919808 525.091489h-8.887653a97.516191 97.516191 0 0 1-68.389329-27.798914l-59.505675-57.953737c-22.607117-22.02314-34.654646-50.742018-32.222741-76.816999l12.707503-134.870732a9.999609 9.999609 0 0 1 16.035374-6.999726c28.618882 21.915144 80.89284 35.534612 136.418671 35.534612 53.609906 0 103.287965-12.29952 132.886809-32.906715a9.98361 9.98361 0 0 1 9.955611-0.847967 9.99161 9.99161 0 0 1 5.719777 8.18768l11.467552 131.962846a94.492309 94.492309 0 0 1-28.290895 76.753001l-59.509675 57.953737a97.472192 97.472192 0 0 1-68.385329 27.802914zM378.973196 246.094387L367.825632 364.385766c-1.875927 20.107215 7.94369 42.774329 26.266974 60.621632l59.505675 57.953736a77.612968 77.612968 0 0 0 54.433874 22.127136h8.891653c20.443201 0 39.774446-7.859693 54.425874-22.127136l59.509675-57.953736a74.609086 74.609086 0 0 0 22.327128-60.629632l-10.079606-116.011468c-33.058709 17.583313-80.192867 27.814913-130.030921 27.814914-52.361955 0.004-100.948057-11.063568-134.102762-30.086825z" fill="#231F20" p-id="2809"></path><path d="M696.672786 290.752642a9.99561 9.99561 0 0 1-9.191641-6.079762 36.778563 36.778563 0 0 0-33.862677-22.375126c-5.187797 0-9.643623-3.959845-10.091606-9.127643l-1.811929-20.819187a10.007609 10.007609 0 0 1 4.247834-9.075646 94.7163 94.7163 0 0 0 5.63178-4.207835 9.999609 9.999609 0 0 1 6.315753-2.247913h9.907613a16.015374 16.015374 0 0 0 10.903574-4.33183 9.99161 9.99161 0 0 1 16.171369 3.83185 186.784704 186.784704 0 0 1 11.787539 64.361486 9.999609 9.999609 0 0 1-10.007609 10.071606z m-33.950674-47.702136c7.599703 1.231952 14.759423 3.963845 21.123175 7.955689a165.765525 165.765525 0 0 0-3.895848-16.291364 35.798602 35.798602 0 0 1-12.127526 2.111918h-5.639779l0.539978 6.223757zM326.367251 289.748682a9.999609 9.999609 0 0 1-10.003609-10.123605 187.000695 187.000695 0 0 1 10.631585-60.045654 9.999609 9.999609 0 0 1 14.691426-5.175798 15.927378 15.927378 0 0 0 8.391672 2.415905h18.16729c2.29991 0 4.531823 0.791969 6.315754 2.247913 0.335987 0.275989 0.699973 0.539979 1.059958 0.803968l1.03996 0.77597a9.999609 9.999609 0 0 1 3.871848 8.875653l-2.235912 23.739073a10.007609 10.007609 0 0 1-9.831616 9.063646c-14.159447 0.175993-27.114941 8.643662-33.002711 21.571157a9.999609 9.999609 0 0 1-9.095645 5.851772z m16.363361-53.689903a165.953517 165.953517 0 0 0-3.475864 14.707425 57.009773 57.009773 0 0 1 19.907222-7.583703l0.595977-6.355752h-9.675622c-2.479903 0-4.943807-0.25599-7.351713-0.76797zM524.519511 622.223694h-24.771032a9.999609 9.999609 0 0 1-7.667701-3.57986l-67.125378-80.12487a9.999609 9.999609 0 0 1 0.819968-13.711464 23.763072 23.763072 0 0 0 7.491708-17.243327v-20.711191a10.003609 10.003609 0 0 1 16.975336-7.16372l3.355869 3.267872a77.604969 77.604969 0 0 0 54.429874 22.127136h8.895653c20.447201 0 39.774446-7.859693 54.421874-22.127136l2.407906-2.343908a10.007609 10.007609 0 0 1 16.975337 7.16772v19.779227c0 6.551744 2.763892 12.875497 7.587703 17.351323a9.999609 9.999609 0 0 1 0.863967 13.751462l-66.997383 79.976876a9.97561 9.97561 0 0 1-7.663701 3.58386z m-20.103215-19.999218h15.435397l58.581712-69.929269a43.798289 43.798289 0 0 1-7.6757-23.28309 97.448193 97.448193 0 0 1-53.833897 16.083371h-8.891653a97.436194 97.436194 0 0 1-54.77386-16.707347 43.798289 43.798289 0 0 1-7.579704 23.727073l58.737705 70.109262zM509.540096 141.694465a10.039608 10.039608 0 0 1-4.579821-1.107957l-26.534963-13.675465c-14.739424-7.595703-22.423124-26.734956-17.871302-44.514262l5.35979-20.943182c2.063919-8.067685 8.907652-13.695465 16.63935-13.695465h53.981892c7.731698 0 14.575431 5.62778 16.63935 13.691466l5.35979 20.947181c4.551822 17.779305-3.131878 36.914558-17.871302 44.514262l-26.538963 13.675465c-1.439944 0.735971-3.011882 1.107957-4.583821 1.107957z m-24.603039-73.941112l-5.011804 19.595235c-2.259912 8.835655 1.103957 18.403281 7.659701 21.775149l21.955142 11.315558 21.959142-11.315558c6.551744-3.375868 9.915613-12.939495 7.655701-21.771149v-0.004l-5.011804-19.595235h-49.206078zM512.203992 443.674669c-17.359322 0-33.53069-8.595664-43.25831-22.995102a9.999609 9.999609 0 0 1 16.571352-11.195562 32.182743 32.182743 0 0 0 53.377915 0 9.999609 9.999609 0 1 1 16.571353 11.195562 52.157963 52.157963 0 0 1-43.26231 22.995102zM584.573165 308.923933c-1.583938 0-3.187875-0.379985-4.683817-1.175954-2.427905-1.28795-8.007687-2.587899-14.999414-2.587899s-12.575509 1.299949-14.999414 2.587899a9.999609 9.999609 0 1 1-9.387633-17.655311c5.89577-3.135878 14.783423-4.931807 24.387047-4.931807s18.491278 1.79593 24.387047 4.931807a9.999609 9.999609 0 0 1-4.703816 18.831265zM478.7213 308.923933c-1.583938 0-3.187875-0.379985-4.683817-1.175954-2.427905-1.28795-8.007687-2.587899-14.999414-2.587899-6.995727 0-12.575509 1.299949-14.999414 2.587899a9.99561 9.99561 0 1 1-9.387634-17.655311c5.89577-3.135878 14.783423-4.931807 24.391048-4.931807 9.603625 0 18.491278 1.79593 24.387047 4.931807a9.999609 9.999609 0 0 1-4.707816 18.831265zM460.602008 347.062443a11.999531 11.999531 0 0 1-11.999532-11.999531v-2.155916a11.999531 11.999531 0 1 1 23.999063 0v2.155916a11.999531 11.999531 0 0 1-11.999531 11.999531zM563.809976 348.710379a11.999531 11.999531 0 0 1-11.999531-11.999532v-2.151916a11.999531 11.999531 0 1 1 23.999062 0v2.151916a11.999531 11.999531 0 0 1-11.999531 11.999532zM714.192102 1018.37622a9.999609 9.999609 0 0 1-9.99961-9.99961V787.729229a9.999609 9.999609 0 1 1 19.999219 0v220.647381a9.999609 9.999609 0 0 1-9.999609 9.99961zM309.803898 1018.37622a9.999609 9.999609 0 0 1-9.999609-9.99961V787.729229a9.999609 9.999609 0 1 1 19.999219 0v220.647381a9.999609 9.999609 0 0 1-9.99961 9.99961zM512 950.52687c-1.571939 0-3.143877-0.371985-4.583821-1.107957l-13.195484-6.799734c-9.507629-4.903808-14.32744-16.611351-11.451553-27.846912l2.667896-10.419593c1.595938-6.231757 6.999727-10.583587 13.143486-10.583587h26.838952c6.14376 0 11.547549 4.35583 13.143486 10.583587l2.667896 10.415593v0.004c2.871888 11.235561-1.943924 22.943104-11.455552 27.846912l-13.191485 6.799734c-1.439944 0.735971-3.011882 1.107957-4.583821 1.107957z m-8.327675-36.766564l-1.52794 5.963767c-0.627975 2.447904 0.447983 4.703816 1.239952 5.107801l8.615663 4.439826 8.611664-4.439826c0.795969-0.407984 1.867927-2.659896 1.243951-5.111801l-1.52794-5.959767h-16.65535zM664.83803 803.560611h-68.453326a9.999609 9.999609 0 1 1 0-19.999219h68.453326a9.999609 9.999609 0 1 1 0 19.999219z" fill="#231F20" p-id="2810"></path><path d="M424.763408 803.560611H356.314081a9.999609 9.999609 0 1 1 0-19.999219h68.453327a9.999609 9.999609 0 1 1-0.004 19.999219z" fill="#231F20" p-id="2811"></path></svg>